<svg width="25" height="25" viewBox="0 0 25 25" fill="none" xmlns="http://www.w3.org/2000/svg">
<path d="M12.5 24.5834C10.6731 24.5885 8.86924 24.1752 7.22685 23.375C6.62576 23.0826 6.04985 22.7411 5.50498 22.354L5.33944 22.2331C3.84088 21.127 2.6157 19.6923 1.75794 18.039C0.8707 16.3279 0.410532 14.4275 0.416625 12.5C0.416625 5.82656 5.82658 0.416672 12.5 0.416672C19.1735 0.416672 24.5834 5.82656 24.5834 12.5C24.5894 14.4266 24.1297 16.326 23.2433 18.0366C22.3867 19.6889 21.1633 21.1232 19.6666 22.2295C19.1021 22.6428 18.5029 23.0066 17.8759 23.317L17.7792 23.3653C16.1358 24.1697 14.3297 24.5864 12.5 24.5834ZM12.5 18.5416C10.6893 18.5381 9.02928 19.5495 8.20198 21.1601C10.9103 22.5016 14.0897 22.5016 16.7981 21.1601V21.1541C15.9697 19.5452 14.3096 18.5361 12.5 18.5416ZM12.5 16.125C15.1174 16.1284 17.5308 17.5389 18.8184 19.8177L18.8365 19.802L18.8534 19.7875L18.8329 19.8056L18.8208 19.8153C21.8767 17.1752 22.9694 12.9137 21.5609 9.12889C20.1524 5.34411 16.5396 2.83372 12.5012 2.83372C8.46287 2.83372 4.85005 5.34411 3.44157 9.12889C2.03308 12.9137 3.12577 17.1752 6.18164 19.8153C7.47004 17.5376 9.88321 16.1282 12.5 16.125ZM12.5 14.9167C9.83064 14.9167 7.66669 12.7527 7.66669 10.0833C7.66669 7.41396 9.83064 5.25001 12.5 5.25001C15.1694 5.25001 17.3334 7.41396 17.3334 10.0833C17.3334 11.3652 16.8241 12.5946 15.9177 13.501C15.0113 14.4074 13.7819 14.9167 12.5 14.9167ZM12.5 7.66667C11.1653 7.66667 10.0834 8.74865 10.0834 10.0833C10.0834 11.418 11.1653 12.5 12.5 12.5C13.8347 12.5 14.9167 11.418 14.9167 10.0833C14.9167 8.74865 13.8347 7.66667 12.5 7.66667Z" fill="white"/>
</svg>
